<svg id="Layer_1" data-name="Layer 1" xmlns="http://www.w3.org/2000/svg" xmlns:xlink="http://www.w3.org/1999/xlink" viewBox="0 0 1790.11 283.29"><defs><style>.cls-1{fill:url(#linear-gradient);}.cls-2{fill:url(#linear-gradient-2);}.cls-3{fill:url(#linear-gradient-3);}.cls-4{fill:url(#linear-gradient-4);}.cls-5{fill:url(#linear-gradient-5);}.cls-6{fill:url(#linear-gradient-6);}.cls-7{fill:url(#linear-gradient-7);}.cls-8{fill:url(#linear-gradient-8);}.cls-9{fill:url(#linear-gradient-10);}.cls-10{fill:url(#linear-gradient-11);}.cls-11{fill:#1a1a1a;}</style><linearGradient id="linear-gradient" x1="-14.9" y1="174.12" x2="161.63" y2="-1.45" gradientUnits="userSpaceOnUse"><stop offset="0" stop-color="#ffc2a0"/><stop offset="1" stop-color="#ff0a44"/></linearGradient><linearGradient id="linear-gradient-2" x1="195.76" y1="82.65" x2="195.49" y2="83.28" gradientUnits="userSpaceOnUse"><stop offset="0" stop-color="#ff0a44"/><stop offset="1" stop-color="#ffc2a0"/></linearGradient><linearGradient id="linear-gradient-3" x1="200.57" y1="84.32" x2="200.54" y2="84.38" xlink:href="#linear-gradient-2"/><linearGradient id="linear-gradient-4" x1="220.51" y1="104.53" x2="217.08" y2="112.29" xlink:href="#linear-gradient-2"/><linearGradient id="linear-gradient-5" x1="148.73" y1="36.98" x2="60.47" y2="228.86" xlink:href="#linear-gradient-2"/><linearGradient id="linear-gradient-6" x1="25.31" y1="214.55" x2="201.83" y2="38.98" xlink:href="#linear-gradient"/><linearGradient id="linear-gradient-7" x1="193.09" y1="57.69" x2="59.21" y2="210.76" xlink:href="#linear-gradient"/><linearGradient id="linear-gradient-8" x1="151.92" y1="98.61" x2="154.41" y2="98.61" xlink:href="#linear-gradient-2"/><linearGradient id="linear-gradient-10" x1="53.4" y1="242.8" x2="229.93" y2="67.23" xlink:href="#linear-gradient"/><linearGradient id="linear-gradient-11" x1="282.14" y1="135.57" x2="148.26" y2="288.65" xlink:href="#linear-gradient"/></defs><path class="cls-1" d="M85.5,54.07a33,33,0,0,1-3.18-17.75A38.92,38.92,0,0,1,88.69,18.4,40.27,40.27,0,0,1,103.16,5.18c.74-.39,1.47-.8,2.22-1.17s1.54-.64,2.31-1,1.56-.62,2.35-.9l2.42-.69a34.43,34.43,0,0,1,4.93-1l1.25-.2c.41-.05.83-.06,1.25-.09L122.4,0a17.53,17.53,0,0,1,2.51,0l2.51.15a23.25,23.25,0,0,1,2.49.33L132.4,1c1.62.42,3.24.87,4.83,1.38l2.34.91a17.36,17.36,0,0,1,2.29,1,41.67,41.67,0,0,1,15.07,12.57,37.94,37.94,0,0,1,7.16,17.61l.25,2.33a22.65,22.65,0,0,1,0,2.33l0,2.31c-.07.76-.17,1.53-.27,2.28a27.86,27.86,0,0,1-2.38,8.63c-.14-1.47-.26-2.91-.52-4.32-.12-.7-.23-1.4-.38-2.09s-.34-1.37-.51-2l-.49-2-.68-1.94c-.24-.63-.38-1.28-.67-1.89l-.81-1.83a38.78,38.78,0,0,0-8.83-12.41A36.56,36.56,0,0,0,122.7,13.62l-1.77.07c-.29,0-.59,0-.89,0l-.87.13-1.76.24a17.18,17.18,0,0,0-1.73.37l-1.73.37c-.57.17-1.13.38-1.69.56s-1.15.33-1.69.57-1.09.47-1.64.7a30.14,30.14,0,0,0-3.22,1.6c-.55.26-1,.63-1.54.94l-1.54,1c-1,.74-1.94,1.47-2.88,2.25l-1.37,1.24-.69.63c-.22.21-.41.45-.63.68C90.16,32.12,85.81,42.29,85.5,54.07Z"/><path class="cls-2" d="M194,82.66a27.38,27.38,0,0,1,3.3.63A31.94,31.94,0,0,0,194,82.66Z"/><path class="cls-3" d="M201.37,84.67c-.54-.23-1.08-.44-1.64-.64A16.37,16.37,0,0,1,201.37,84.67Z"/><path class="cls-4" d="M219.65,114a51.8,51.8,0,0,0-1.79-11A43.79,43.79,0,0,1,219.65,114Z"/><path class="cls-5" d="M123.48,89.67l3.77-3.77C125,88.06,123.67,89.46,123.48,89.67Z"/><path class="cls-6" d="M42.14,80.57a51,51,0,0,0-1.42,70.71c.46.5.93,1,1.42,1.48L72.68,183.3l11.89,11.89a19.13,19.13,0,0,0,1.71,1.1h0A35.3,35.3,0,0,0,101,200.4c.66,0,1.29.08,1.92.1.43,0,.85,0,1.25,0l1,0a39.73,39.73,0,0,0,18.23-4.85h0l62.09-62.1c.24-.24.48-.49.7-.73a23.86,23.86,0,0,0-31.79-35.3c5.5-4.5,18.84-14.13,33.19-15,.38,0,.77,0,1.15-.06.64,0,1.29,0,1.93,0l1.58.08c.56,0,1.12.1,1.67.18a31.94,31.94,0,0,1,3.3.63h0c.54.15,1.1.3,1.64.47l.81.27c.56.2,1.1.41,1.64.64.28.12.55.23.82.36l.68.32a30.47,30.47,0,0,1,4.93,3A28.42,28.42,0,0,1,217.86,103a51.8,51.8,0,0,1,1.79,11c0,.44,0,.88,0,1.32s0,.88,0,1.32a50.92,50.92,0,0,1-13.52,34.62c-.47.5-.94,1-1.43,1.48l-9.11,9.12-72.2,72.2s-11.33,16.33,0,38.45L93.66,242.72,22.91,172c-.75-.75-1.49-1.53-2.21-2.31A78.23,78.23,0,0,1,123.46,52.83,78.22,78.22,0,0,1,224,61.35a79.35,79.35,0,0,1,10.43,12.89c-29.56-35.29-67-18.78-90-2.5A156.77,156.77,0,0,0,127.36,85.8l-.11.1c-2.26,2.16-3.58,3.56-3.77,3.77l0,0-9.13-9.13c-.47-.47-.95-.93-1.43-1.38a51,51,0,0,0-70.75,1.38Z"/><path class="cls-7" d="M246.9,116.66a78,78,0,0,1-20.75,53.07c-.72.78-1.43,1.51-2.16,2.25L123.44,272.53c-11.32-22.12,0-38.45,0-38.45l72.2-72.2,9.11-9.12c.49-.49,1-1,1.43-1.48a50.92,50.92,0,0,0,13.52-34.62c0-.44,0-.88,0-1.32s0-.88,0-1.32a51.8,51.8,0,0,0-1.79-11,28.42,28.42,0,0,0-10.06-14.6,30.47,30.47,0,0,0-4.93-3l-.68-.32c-.27-.13-.54-.24-.82-.36-.54-.23-1.08-.44-1.64-.64l-.81-.27c-.54-.18-1.1-.33-1.64-.47h0a31.94,31.94,0,0,0-3.3-.63c-.55-.08-1.11-.13-1.67-.18l-1.58-.08c-.64,0-1.29,0-1.93,0-.38,0-.77,0-1.15.06-14.35.91-27.69,10.54-33.19,15l0,0c-.66.5-1.3,1-1.92,1.61l-.35.31a1.79,1.79,0,0,0-.13.14.38.38,0,0,0-.09.09l-.12.11-28.35,28.35L95.1,99.79c-.22-.22-.44-.43-.65-.62a23.85,23.85,0,0,0-33.76,33.66l.13.15c.17.19.35.37.54.55l62.09,62.11h0a39.73,39.73,0,0,1-18.23,4.85l-1,0c-.4,0-.82,0-1.25,0-.63,0-1.26-.05-1.92-.1a35.3,35.3,0,0,1-14.73-4.1h0a19.13,19.13,0,0,1-1.71-1.1L72.68,183.3,42.14,152.76c-.49-.49-1-1-1.42-1.48a51,51,0,0,1,72.17-72.09c.48.45,1,.91,1.43,1.38l9.13,9.13,0,0,3.77-3.77.11-.1a156.77,156.77,0,0,1,17.08-14.06c23-16.28,60.42-32.79,90,2.5l0,0A77.69,77.69,0,0,1,246.9,116.66Z"/><path class="cls-8" d="M154.41,97.53l-2.49,2.15.09-.09a1.79,1.79,0,0,1,.13-.14l.35-.31C153.11,98.57,153.75,98,154.41,97.53Z"/><path class="cls-8" d="M154.41,97.53l-2.49,2.15.09-.09C152.37,99.26,153.2,98.53,154.41,97.53Z"/><path class="cls-9" d="M83.62,211.48a42,42,0,0,0-43.24-2.56,41.1,41.1,0,0,0-15.91,14.89A41.75,41.75,0,0,0,22,228.65l-.54,1.25a9.6,9.6,0,0,0-.48,1.26l-.83,2.58a39.49,39.49,0,0,0-1.48,10.61,37.65,37.65,0,0,0,.3,5.31c.06.88.3,1.75.44,2.62a20.93,20.93,0,0,0,.59,2.58l.76,2.53c.25.84.64,1.63,1,2.45a41,41,0,0,0,2.32,4.7,38.74,38.74,0,0,0,14.72,14.18,40.35,40.35,0,0,0,4.62,2.16c.8.29,1.61.53,2.41.79l1.21.39,1.24.27,2.47.52,2.51.27,1.24.14h1.8l.31,0H58.2l-.58-.06a14.08,14.08,0,1,0-6-.85l-.81-.16-2.38-.71-1.17-.36-1.14-.48c-.76-.32-1.53-.61-2.27-1a39.49,39.49,0,0,1-4.24-2.44A36.2,36.2,0,0,1,27,262.93c-5.59-11.5-4.17-25.63,3.12-35.36a33.39,33.39,0,0,1,13.92-11,32.48,32.48,0,0,1,17.13-2.25A31.25,31.25,0,0,1,86.13,234.4l12.51-5.3A43.75,43.75,0,0,0,83.62,211.48Z"/><path class="cls-10" d="M163.27,211.48a42.06,42.06,0,0,1,43.25-2.56,41.16,41.16,0,0,1,15.91,14.89,41.75,41.75,0,0,1,2.49,4.84l.54,1.25a9.6,9.6,0,0,1,.48,1.26l.83,2.58A41.19,41.19,0,0,1,228,249.66a26.08,26.08,0,0,1-.45,2.62,20.89,20.89,0,0,1-.58,2.58l-.76,2.53c-.25.84-.64,1.63-1,2.45a42.71,42.71,0,0,1-2.32,4.7,38.76,38.76,0,0,1-14.73,14.18,39.44,39.44,0,0,1-4.61,2.16c-.8.29-1.62.53-2.42.79l-1.2.39-1.24.27-2.47.52-2.51.27-1.25.14h-1.79l-.31,0h-1.66l.58-.06a14.08,14.08,0,1,1,6-.85l.81-.16,2.37-.71,1.18-.36,1.14-.48c.76-.32,1.52-.61,2.27-1a39.49,39.49,0,0,0,4.24-2.44,36.25,36.25,0,0,0,12.6-14.34c5.59-11.5,4.17-25.63-3.11-35.36a33.45,33.45,0,0,0-13.92-11,32.5,32.5,0,0,0-17.14-2.25,31.25,31.25,0,0,0-24.94,20.06l-12.52-5.3A43.83,43.83,0,0,1,163.27,211.48Z"/><path class="cls-11" d="M468.22,109.23a70.56,70.56,0,0,0-29.49-26.56q-19-9.42-43.68-9.43H326.11V225h68.94q24.7,0,43.68-9.43A70.62,70.62,0,0,0,468.22,189q10.53-17.13,10.51-39.89T468.22,109.23Zm-38.59,74.25q-13.56,12.69-36.32,12.69H361.23V102.08h32.08q22.77,0,36.32,12.68t13.55,34.36Q443.18,170.78,429.63,183.48Z"/><rect class="cls-11" x="502.79" y="108.37" width="33.82" height="116.64"/><path class="cls-11" d="M651.3,108.37l-33.39,79.34-32.3-79.34h-34.9L599.7,225h34.91l49.21-116.63Z"/><rect class="cls-11" x="697.69" y="108.37" width="33.82" height="116.64"/><path class="cls-11" d="M868.85,119.64q-13.32-13-35-13a57.74,57.74,0,0,0-21.89,4A44.58,44.58,0,0,0,795.25,122V108.37H763V225h33.82V167.33c0-10.4,2.51-18.25,7.59-23.52s11.83-7.91,20.38-7.91q11.47,0,17.56,6.83c4,4.55,6.07,11.44,6.07,20.7V225h33.82V158.23Q882.19,132.64,868.85,119.64Z"/><path class="cls-11" d="M1028.31,167.12q0-18.21-7.92-32A53.83,53.83,0,0,0,998.61,114a69.14,69.14,0,0,0-62.77.33,56.7,56.7,0,0,0-22.33,21.46,59.56,59.56,0,0,0-8.13,30.89,58.75,58.75,0,0,0,8.24,31A56.39,56.39,0,0,0,937,219q15.15,7.68,34.9,7.7,31.63,0,48.13-18.87l-18-19.51A39.55,39.55,0,0,1,989,196.93a45,45,0,0,1-16.15,2.71q-13.24,0-22.12-6.29a27.45,27.45,0,0,1-11.27-17.13h88.24C1028.09,170.59,1028.31,167.55,1028.31,167.12ZM939,156.49q1.72-11.28,9.54-17.77t19.29-6.51c7.5,0,13.88,2.19,19.08,6.62s8.37,10.29,9.54,17.66Z"/><path class="cls-11" d="M1285.21,73.24h-28.83l-55.94,94.31-56.8-94.31h-29.05V225h33V135.9L1192,209h15.82l44.66-75,.22,91.05h33Z"/><path class="cls-11" d="M1407.92,119.53q-14.54-12.91-41.63-12.9a101.44,101.44,0,0,0-27.42,3.69,72.75,72.75,0,0,0-22.87,10.4l12.14,23.63a47.84,47.84,0,0,1,15.28-7.91,58.8,58.8,0,0,1,18.32-2.93q13.42,0,20.16,6t6.72,17h-26.88q-25.59,0-37.83,9.33t-12.25,25.58a32.77,32.77,0,0,0,5.2,18.21,34.76,34.76,0,0,0,15.07,12.57q9.85,4.56,23.31,4.56,26,0,35.55-16.26V225h31.65V158.45Q1422.44,132.43,1407.92,119.53Zm-19.3,68.62a22.06,22.06,0,0,1-9.54,11.81,29.51,29.51,0,0,1-15.39,4c-5.94,0-10.6-1.28-14-3.79a12.15,12.15,0,0,1-5.1-10.3q0-13.66,20.81-13.66h23.2Z"/><path class="cls-11" d="M1519.11,195.52a21.74,21.74,0,0,1-13.64,4.33q-6.95,0-10.75-4c-2.51-2.69-3.79-6.48-3.79-11.38V137h29V111h-29V82.57h-33.82V111h-18v26h18v47.91q0,20.6,11.38,31.22t32.19,10.63a62.3,62.3,0,0,0,15.29-1.85,35.09,35.09,0,0,0,12.27-5.53Z"/><path class="cls-11" d="M1599.76,199q-13.2,0-21.9-8.68c-5.76-5.78-8.67-13.65-8.67-23.63s2.91-17.86,8.67-23.63,13.1-8.67,21.9-8.67q17.13,0,26.23,16l26.23-14.09a45.42,45.42,0,0,0-20-22q-13.76-7.71-32.19-7.7-18.64,0-33.5,7.7a57.75,57.75,0,0,0-23.2,21.35,58.37,58.37,0,0,0-8.34,31A57.19,57.19,0,0,0,1566.48,219q14.87,7.68,33.5,7.7,18.43,0,32.19-7.81a46.47,46.47,0,0,0,20-21.68L1626,182.94Q1617.11,199,1599.76,199Z"/><path class="cls-11" d="M1776.77,119.64q-13.33-13-35-13a58.79,58.79,0,0,0-20.81,3.58,45,45,0,0,0-16.26,10.3V64.14h-33.82V225h33.82V167.33q0-15.6,7.59-23.52c5.07-5.29,11.86-7.91,20.38-7.91q11.5,0,17.56,6.83t6.07,20.7V225h33.82V158.23Q1790.11,132.64,1776.77,119.64Z"/><circle class="cls-11" cx="519.7" cy="73.89" r="17.34" transform="translate(99.97 389.13) rotate(-45)"/><circle class="cls-11" cx="714.6" cy="73.89" r="17.34" transform="translate(478.5 752.4) rotate(-76.72)"/></svg>